<svg xmlns="http://www.w3.org/2000/svg" width="220" height="224" viewBox="0 0 220 224" fill="none"><path fill-rule="evenodd" clip-rule="evenodd" d="M109.915 111.922C109.891 111.948 109.867 111.974 109.842 112C109.896 112.057 109.951 112.115 110.005 112.173C110.059 112.115 110.113 112.057 110.167 112C110.113 111.942 110.059 111.884 110.005 111.826C109.975 111.858 109.945 111.89 109.915 111.922ZM201.053 112C212.196 100.143 219.061 83.9403 219.061 66.0752C219.061 29.7335 190.653 0.272614 155.61 0.272614C137.71 0.272614 121.541 7.9597 110.005 20.3244C98.4688 7.9597 82.2997 0.272614 64.3994 0.272614C29.3563 0.272614 0.948265 29.7335 0.948265 66.0752C0.948265 83.9403 7.81321 100.143 18.9566 112C7.8132 123.857 0.948242 140.059 0.948242 157.924C0.948242 194.266 29.3563 223.727 64.3994 223.727C82.2997 223.727 98.4688 216.04 110.005 203.675C121.54 216.04 137.71 223.727 155.61 223.727C190.653 223.727 219.061 194.266 219.061 157.924C219.061 140.059 212.196 123.857 201.053 112Z" fill="#F5F2FF"></path></svg>