<svg xmlns="http://www.w3.org/2000/svg" width="95" height="81" viewBox="0 0 95 81" fill="none"><path d="M41.8003 70.5882L57.7464 79.1197L72.6637 68.4296L69.886 50.4414L83.1573 37.6955L76.4702 20.3241H59.804L52.2939 1.9248H33.673L25.5456 20.3241H8.87938L1.47217 37.6955L14.3319 50.4414L10.9369 68.4296L25.4427 79.1197L41.8003 70.5882Z" fill="white" stroke="#C6B8EA" stroke-width="2" stroke-miterlimit="10"></path><path d="M51.6429 70.5882L67.589 79.1197L82.5063 68.4296L79.7286 50.4414L92.9998 37.6955L86.3128 20.3241H69.6465L62.1364 1.9248H43.5155L35.3881 20.3241H18.7219L11.3147 37.6955L24.1744 50.4414L20.7795 68.4296L35.2853 79.1197L51.6429 70.5882Z" fill="#DCD3F2" stroke="#C6B8EA" stroke-width="2" stroke-miterlimit="10"></path><path d="M52.5687 13.4371L43.927 32.8643H25.4089L38.5773 46.0214L35.0795 64.4207L51.8486 55.6836L68.3091 64.4207L65.4285 46.0214L79.1112 32.8643H60.5932L52.5687 13.4371Z" fill="white" stroke="#C6B8EA" stroke-width="2" stroke-miterlimit="10"></path></svg>