<svg xmlns="http://www.w3.org/2000/svg" width="231" height="220" viewBox="0 0 231 220" fill="none"><path d="M205.325 3.9386H12.4486L6.23584 183.99H82.2004L108.746 215.78H123.43L135.573 183.99H211.538L205.325 3.9386Z" fill="#DCD3F2" stroke="#C6B8EA" stroke-width="2.898" stroke-miterlimit="10"></path><path d="M220.551 3.9386H27.6749L21.4622 183.99H97.4267L124.254 214.092L150.8 183.99H226.764L220.551 3.9386Z" fill="white" stroke="#C6B8EA" stroke-width="2.898" stroke-miterlimit="10"></path><path d="M124.254 152.2L68.9045 97.3402C55.9143 84.399 55.9143 63.5806 68.9045 50.9207C81.8948 37.9795 100.815 37.9795 113.523 50.9207L121.995 59.3606L130.467 50.9207C143.457 37.9795 166.331 37.9795 179.321 50.9207C192.312 63.8619 192.312 84.6803 179.321 97.3402L124.254 152.2Z" fill="#DCD3F2" stroke="#C6B8EA" stroke-width="2.898" stroke-miterlimit="10"></path><path d="M138.581 62.9587C141.97 59.5827 146.77 57.8947 152.136 57.8947C157.501 57.8947 162.302 59.864 165.691 62.9587C172.468 69.7106 172.468 80.9638 165.691 87.7157" fill="#ECE7FB"></path><path d="M138.581 62.9587C141.97 59.5827 146.77 57.8947 152.136 57.8947C157.501 57.8947 162.302 59.864 165.691 62.9587C172.468 69.7106 172.468 80.9638 165.691 87.7157" stroke="#C6B8EA" stroke-width="2.898" stroke-miterlimit="10"></path></svg>