<svg xmlns="http://www.w3.org/2000/svg" width="107" height="88" viewBox="0 0 107 88" fill="none"><path d="M92.351 56.6589H56.1354H18.4955L9.03467 86.4687H57.6613H104.762L92.351 56.6589Z" fill="#DCD3F2" stroke="#C6B8EA" stroke-width="2" stroke-miterlimit="10"></path><path d="M19.9197 86.4687L29.3805 56.6589H18.4955L9.03467 86.4687H19.9197Z" fill="white" stroke="#C6B8EA" stroke-width="2" stroke-miterlimit="10"></path><path d="M35.9791 1.4292C32.2151 1.4292 28.3494 3.06261 25.2975 6.12525C19.092 12.3526 18.4747 22.3573 24.6802 28.4826L51.0281 54.9234H56.4267L40.6586 1.4292H35.9791Z" fill="#DCD3F2" stroke="#C6B8EA" stroke-width="2" stroke-miterlimit="10"></path><path d="M57.6612 54.9234L31.3133 28.4826C25.1078 22.2552 25.1078 12.2505 31.3133 6.12525C37.5188 -0.102133 46.471 -0.102133 52.6765 6.12525L56.7456 10.2088L60.8148 6.12525C67.0203 -0.102133 77.9054 -0.102133 84.1108 6.12525C90.3163 12.3526 90.3163 22.3573 84.1108 28.4826L57.6612 54.9234Z" fill="white" stroke="#C6B8EA" stroke-width="2" stroke-miterlimit="10"></path><path d="M65.9014 11.3318C67.4273 9.80051 69.7671 8.88171 72.3103 8.88171C74.8535 8.88171 77.1933 9.80051 78.7193 11.3318C81.9746 14.5987 81.9746 20.0093 78.7193 23.2761" fill="#DCD3F2"></path><path d="M65.9014 11.3318C67.4273 9.80051 69.7671 8.88171 72.3103 8.88171C74.8535 8.88171 77.1933 9.80051 78.7193 11.3318C81.9746 14.5987 81.9746 20.0093 78.7193 23.2761" stroke="#C6B8EA" stroke-width="2" stroke-miterlimit="10"></path><rect y="41" width="3" height="6" fill="#F5F2FF"></rect></svg>