<svg xmlns="http://www.w3.org/2000/svg" width="110" height="73" viewBox="0 0 110 73" fill="none"><path d="M1.802 71.0156L2.14522 14.0413H95.8433L95.3857 71.0156H1.802Z" fill="white" stroke="#C6B8EA" stroke-width="2" stroke-miterlimit="10"></path><path d="M13.2427 60.5607L13.7003 3.5863H107.284L106.941 60.5607H13.2427Z" fill="#DCD3F2" stroke="#C6B8EA" stroke-width="2" stroke-miterlimit="10"></path><path d="M105.682 5.30578L105.339 58.9557H14.9586L15.3018 5.30578H105.682ZM109 1.98132H12.0985L11.6409 62.2802H108.542L109 1.98132Z" fill="#DCD3F2"></path><path d="M60.2632 34.5382H98.2458" stroke="#C6B8EA" stroke-width="2" stroke-miterlimit="10"></path><path d="M60.2632 42.5627H98.2458" stroke="#C6B8EA" stroke-width="2" stroke-miterlimit="10"></path><path d="M70.3308 50.5874H98.2458" stroke="#C6B8EA" stroke-width="2" stroke-miterlimit="10"></path><rect x="12.5217" y="1.98132" width="96.4781" height="60.2988" stroke="#C6B8EA" stroke-width="2" stroke-miterlimit="10"></rect><path d="M38.6303 36.1508L27.8293 25.2174C25.2854 22.6424 25.2854 18.5054 27.8293 15.9725C30.3732 13.3975 34.043 13.3975 36.5869 15.9725L38.255 17.6611L39.9231 15.9725C42.4669 13.3975 46.9291 13.3975 49.473 15.9725C52.0169 18.5476 52.0169 22.6846 49.473 25.2174L38.6303 36.1508Z" fill="white" stroke="#C6B8EA" stroke-width="2" stroke-miterlimit="10"></path></svg>