<svg xmlns="http://www.w3.org/2000/svg" id="aa4aa732-c429-4778-ab76-73e8074b9c8e" data-name="Layer 1" width="185.446" height="147.0756" viewBox="0 0 185.446 147.0756"><path d="M112.351,8.7783c-45.0543-13.1324-85.2276-11.256-89.73,4.191-1.9595,6.7226,3.16,14.9077,13.282,23.0914C22.97,37.5243,14.2542,41.6765,12.2947,48.399c-2.1541,7.39,4.2467,16.5477,16.4434,25.528-15.1114,1.02-25.43,5.3045-27.584,12.6946C-3.3484,102.069,29.5248,125.237,74.5786,138.369s85.2274,11.256,89.7294-4.191c2.154-7.39-4.246-16.548-16.443-25.528,15.111-1.02,25.43-5.304,27.584-12.6945,1.959-6.7226-3.16-14.9077-13.282-23.0914,12.933-1.4636,21.649-5.6158,23.608-12.3383C190.278,45.0788,157.404,21.9107,112.351,8.7783Z" transform="translate(-0.7416 -0.036)" style="fill-rule:evenodd"></path></svg>