<svg xmlns="http://www.w3.org/2000/svg" id="e3fe45ff-0bf6-419a-9801-c170b7ab852c" data-name="Layer 1" width="135" height="38" viewBox="0 0 135 38"><path d="M16.5709,12.5668a6.8508,6.8508,0,0,0-2.8723-2.2243,9.4086,9.4086,0,0,0-4.0212-.885,10.2344,10.2344,0,0,0-4.9492,1.1948,8.589,8.589,0,0,0-3.4467,3.3631A10.18,10.18,0,0,0,0,19.2814a11.1077,11.1077,0,0,0,1.1931,5.266,8.7109,8.7109,0,0,0,3.27,3.4959,9.223,9.223,0,0,0,4.6841,1.1948A9.7509,9.7509,0,0,0,13.6544,28.22a12.16,12.16,0,0,0,2.8723-2.1111v2.6864h4.5515V0H16.5709ZM15.3336,23.3526a5.7217,5.7217,0,0,1-2.0327,1.5046,6.677,6.677,0,0,1-2.74.531,5.7888,5.7888,0,0,1-2.9607-.7966,6.4805,6.4805,0,0,1-2.2094-2.2568,6.3045,6.3045,0,0,1-.7955-3.1419,6.2372,6.2372,0,0,1,.7955-3.1862,5.9746,5.9746,0,0,1,2.1652-2.1241,5.8713,5.8713,0,0,1,3.0049-.7965,6.7625,6.7625,0,0,1,2.6955.531,5.632,5.632,0,0,1,2.0769,1.5046A4.7737,4.7737,0,0,1,16.5267,17.29v3.7171A6.1061,6.1061,0,0,1,15.3336,23.3526Z"></path><path d="M42.14,10.785a10.7835,10.7835,0,0,0-5.3468-1.2833,10.943,10.943,0,0,0-5.3469,1.2833,9.4135,9.4135,0,0,0-3.6677,3.54,9.5394,9.5394,0,0,0-1.3257,5,10.2946,10.2946,0,0,0,1.3257,5.31,9.27,9.27,0,0,0,3.6677,3.4074,11.5023,11.5023,0,0,0,5.3027,1.1948,10.8783,10.8783,0,0,0,5.391-1.2833A9.1793,9.1793,0,0,0,45.6753,24.37a10.036,10.036,0,0,0,1.2814-5.0448,9.7935,9.7935,0,0,0-1.2814-5A8.88,8.88,0,0,0,42.14,10.785Zm-.53,11.7268a5.7552,5.7552,0,0,1-1.9885,2.2126,5.41,5.41,0,0,1-2.9165.7965,5.33,5.33,0,0,1-2.8723-.7965A6.1141,6.1141,0,0,1,31.8,22.5118a6.9466,6.9466,0,0,1-.0442-6.1953A6.0178,6.0178,0,0,1,33.7884,14.06a5.4787,5.4787,0,0,1,5.833,0A5.7545,5.7545,0,0,1,41.61,16.2723a6.3418,6.3418,0,0,1,.7512,3.0976A6.5986,6.5986,0,0,1,41.61,22.5118Z"></path><path d="M67.5873,12.6157a7.2925,7.2925,0,0,0-2.7868-2.1847,9.7366,9.7366,0,0,0-4.4189-.9735,9.0256,9.0256,0,0,0-4.7282,1.3275,10.04,10.04,0,0,0-3.5794,3.54,9.7945,9.7945,0,0,0-1.3256,5.1332,9.793,9.793,0,0,0,1.2815,5,9.6768,9.6768,0,0,0,3.4025,3.4959,9.0268,9.0268,0,0,0,4.6841,1.2833A9.4273,9.4273,0,0,0,65.11,27.999a7.1067,7.1067,0,0,0,2.4608-2.478L67.54,28.84a4.9066,4.9066,0,0,1-.7512,2.7437,4.8074,4.8074,0,0,1-2.1653,1.77,7.5439,7.5439,0,0,1-3.3141.6638,6.9882,6.9882,0,0,1-3.4026-.7965,12.6235,12.6235,0,0,1-2.8281-2.0356l-2.6955,3.1419A28.2342,28.2342,0,0,0,54.77,36.1414a10.34,10.34,0,0,0,2.8723,1.3718A12.8993,12.8993,0,0,0,61.3979,38a12.1218,12.1218,0,0,0,5.6562-1.2391,9.1393,9.1393,0,0,0,3.7119-3.2746,8.0538,8.0538,0,0,0,1.37-4.6022V10.254h-4.198Zm-1.2844,10.87A6.3841,6.3841,0,0,1,64.226,24.99a6.9929,6.9929,0,0,1-2.7839.531,6.2815,6.2815,0,0,1-3.1374-.7965,6.1191,6.1191,0,0,1-2.1653-2.2569,6.3049,6.3049,0,0,1-.7954-3.1419,6.2378,6.2378,0,0,1,.7954-3.1861,5.553,5.553,0,0,1,2.1653-2.1241,6.2815,6.2815,0,0,1,3.1374-.7965,6.8765,6.8765,0,0,1,2.74.531,6.3388,6.3388,0,0,1,2.1211,1.46,5.1821,5.1821,0,0,1,1.2815,2.1684v3.85A5.9215,5.9215,0,0,1,66.3029,23.4853Z"></path><path d="M89.5229,18.8389a8.739,8.739,0,0,0-2.43-1.1063q-.9721-.354-1.9885-.6638a5.6245,5.6245,0,0,1-1.6792-.885,1.7776,1.7776,0,0,1-.5745-1.46,1.5341,1.5341,0,0,1,.3977-1.062,2.2538,2.2538,0,0,1,1.0606-.708,3.8857,3.8857,0,0,1,1.4582-.2656,5.8663,5.8663,0,0,1,1.9443.4868,5.0825,5.0825,0,0,1,1.9,1.1948l1.7675-2.7436a7.81,7.81,0,0,0-2.8722-1.5488A11.9362,11.9362,0,0,0,84.9272,9.59a7.51,7.51,0,0,0-3.7118.8408,5.7134,5.7134,0,0,0-2.2537,2.1683,5.5989,5.5989,0,0,0-.707,2.7437,4.9917,4.9917,0,0,0,1.1931,3.3189,7.6685,7.6685,0,0,0,3.5351,2.1241q1.1047.31,2.0769.6637a5.0982,5.0982,0,0,1,1.5908.8851,2.0559,2.0559,0,0,1,.1768,2.7436,2.5375,2.5375,0,0,1-1.1489.708,6.5637,6.5637,0,0,1-1.5909.177,5.9484,5.9484,0,0,1-2.342-.531,9.8414,9.8414,0,0,1-2.3862-1.6816l-1.9443,2.5667a7.9924,7.9924,0,0,0,3.1374,2.1683,11.175,11.175,0,0,0,3.9328.708,8.94,8.94,0,0,0,4.11-.8407,5.93,5.93,0,0,0,2.43-2.3011,6.3808,6.3808,0,0,0,.7954-3.0977,4.5448,4.5448,0,0,0-.6186-2.4781A5.25,5.25,0,0,0,89.5229,18.8389Z"></path><path d="M99.8207,1.1381a2.7588,2.7588,0,0,0-1.8118.708,2.2217,2.2217,0,0,0-.84,1.77,2.2217,2.2217,0,0,0,.84,1.77,2.8644,2.8644,0,0,0,1.8118.6638,2.7479,2.7479,0,0,0,1.8113-.6638,2.27,2.27,0,0,0,.796-1.77,2.27,2.27,0,0,0-.796-1.77A2.648,2.648,0,0,0,99.8207,1.1381Z"></path><rect x="97.4345" y="10.254" width="4.5515" height="18.5416"></rect><path d="M123.849,11.67a8.8824,8.8824,0,0,0-6.142-2.1683,10.6345,10.6345,0,0,0-5.259,1.3276,10.4339,10.4339,0,0,0-3.756,3.5844,9.2266,9.2266,0,0,0-1.37,4.9562,10.5,10.5,0,0,0,1.238,5.1332,8.9616,8.9616,0,0,0,3.535,3.4959,11.4885,11.4885,0,0,0,5.524,1.2391,10.9508,10.9508,0,0,0,3.314-.531,14.333,14.333,0,0,0,3.181-1.5046l-2.077-3.3632a10.7844,10.7844,0,0,1-2.076,1.1064,5.7966,5.7966,0,0,1-2.254.4425,5.7184,5.7184,0,0,1-4.9663-2.6577l14.4223-4.9979A10.7992,10.7992,0,0,0,123.849,11.67Zm-11.356,4.3367a5.5267,5.5267,0,0,1,1.988-2.1241,5.33,5.33,0,0,1,2.872-.7965,4.4432,4.4432,0,0,1,3.138,1.0621,6.1144,6.1144,0,0,1,1.584,2.1821l-10.2441,3.6824a8.4528,8.4528,0,0,1-.0449-.8641A6.5862,6.5862,0,0,1,112.493,16.0067Z"></path><path d="M134.205,24.5031a2.2793,2.2793,0,0,0-1.635-.7523,2.5149,2.5149,0,0,0-1.768.7523,2.3308,2.3308,0,0,0-.751,1.77,2.4349,2.4349,0,0,0,.751,1.8586,2.6913,2.6913,0,0,0,1.768.6638,2.4227,2.4227,0,0,0,1.635-.6638A2.37,2.37,0,0,0,135,26.2732,2.2723,2.2723,0,0,0,134.205,24.5031Z"></path></svg>